<svg width="545" height="49" viewBox="0 0 545 49" fill="none" xmlns="http://www.w3.org/2000/svg">
<g filter="url(#filter0_i_7_14)">
<path d="M0.712769 48V5.31201H11.0808V22.592H26.7608V5.31201H37.0648V48H26.7608V31.04H11.0808V48H0.712769ZM207.36 48L196.544 15.616H206.784L212.48 36.224L217.856 15.616H224.896L230.464 36.608L236.224 15.616H246.272L235.52 48H226.88L221.312 29.888L216 48H207.36Z" fill="black"/>
<path d="M69.4463 48.9599C64.4543 48.9599 60.7423 47.4879 58.3103 44.5439C55.9209 41.5572 54.7263 37.4186 54.7263 32.1279C54.7263 26.5812 55.9849 22.4212 58.5023 19.6479C61.0623 16.8746 64.6676 15.4879 69.3183 15.4879C72.7743 15.4879 75.5903 16.1919 77.7663 17.5999C79.9423 18.9652 81.5423 20.9066 82.5663 23.4239C83.5903 25.8986 84.1023 28.7999 84.1023 32.1279C84.1023 37.3759 82.8223 41.4932 80.2623 44.4799C77.7449 47.4666 74.1396 48.9599 69.4463 48.9599ZM69.3823 44.7359C71.9849 44.7359 74.0116 44.1812 75.4623 43.0719C76.9129 41.9199 77.9369 40.4052 78.5343 38.5279C79.1743 36.6079 79.4943 34.4746 79.4943 32.1279C79.4943 28.3306 78.7476 25.3226 77.2543 23.1039C75.7609 20.8426 73.1369 19.7119 69.3823 19.7119C66.8223 19.7119 64.8169 20.2666 63.3663 21.3759C61.9156 22.4852 60.8703 23.9786 60.2303 25.8559C59.6329 27.6906 59.3343 29.7812 59.3343 32.1279C59.3343 35.8826 60.0809 38.9332 61.5743 41.2799C63.0676 43.5839 65.6703 44.7359 69.3823 44.7359ZM108.483 47.9999L97.859 16.0639H102.723L111.043 42.7519L118.851 16.0639H123.267L131.331 42.8159L139.779 16.0639H144.323L133.699 47.9999H129.027L121.027 21.5039L113.155 47.9999H108.483ZM170.3 48.9599C167.996 48.9599 166.055 48.7252 164.476 48.2559C162.94 47.7866 161.34 47.1252 159.676 46.2719V41.4079C161.639 42.5172 163.324 43.3492 164.732 43.9039C166.183 44.4586 167.932 44.7359 169.98 44.7359C172.114 44.7359 173.842 44.2666 175.164 43.3279C176.53 42.3892 177.212 41.1732 177.212 39.6799C177.212 38.4852 176.871 37.5679 176.188 36.9279C175.548 36.2879 174.716 35.7546 173.692 35.3279C172.668 34.9012 171.602 34.4532 170.492 33.9839C169.255 33.6426 167.996 33.2799 166.716 32.8959C165.479 32.4692 164.327 31.9359 163.26 31.2959C162.236 30.6132 161.404 29.7599 160.764 28.7359C160.124 27.6692 159.804 26.3039 159.804 24.6399C159.804 22.4639 160.359 20.7146 161.468 19.3919C162.578 18.0266 163.986 17.0452 165.692 16.4479C167.442 15.8079 169.191 15.4879 170.94 15.4879C172.86 15.4879 174.503 15.7439 175.868 16.2559C177.234 16.7679 178.642 17.3439 180.092 17.9839V22.5919C178.471 21.7386 177.02 21.0559 175.74 20.5439C174.46 19.9892 172.946 19.7119 171.196 19.7119C169.447 19.7119 167.868 20.0746 166.46 20.7999C165.095 21.4826 164.412 22.5492 164.412 23.9999C164.412 25.1946 164.754 26.1546 165.436 26.8799C166.162 27.5626 167.1 28.1172 168.252 28.5439C169.404 28.9279 170.642 29.3119 171.964 29.6959C173.031 30.0372 174.14 30.4212 175.292 30.8479C176.444 31.2319 177.511 31.7652 178.492 32.4479C179.474 33.0879 180.263 33.9412 180.86 35.0079C181.5 36.0746 181.82 37.4399 181.82 39.1039C181.82 41.3652 181.244 43.2426 180.092 44.7359C178.94 46.1866 177.468 47.2532 175.676 47.9359C173.927 48.6186 172.135 48.9599 170.3 48.9599ZM275.785 48.9599C271.22 48.9599 267.615 47.5519 264.969 44.7359C262.324 41.8772 261.001 37.6319 261.001 31.9999C261.001 26.4959 262.239 22.3786 264.713 19.6479C267.231 16.8746 270.665 15.4879 275.017 15.4879C278.431 15.4879 281.161 16.2559 283.209 17.7919C285.3 19.3279 286.793 21.3972 287.689 23.9999C288.585 26.6026 289.012 29.5466 288.969 32.8319H265.673C265.673 36.7146 266.569 39.6799 268.361 41.7279C270.196 43.7332 272.756 44.7359 276.041 44.7359C278.388 44.7359 280.457 44.4799 282.249 43.9679C284.084 43.4559 285.663 42.7946 286.985 41.9839V46.7199C283.871 48.2132 280.137 48.9599 275.785 48.9599ZM275.017 19.7119C272.329 19.7119 270.239 20.3519 268.745 21.6319C267.252 22.8692 266.292 25.1946 265.865 28.6079H284.105C283.935 25.6212 283.103 23.4026 281.609 21.9519C280.116 20.4586 277.919 19.7119 275.017 19.7119ZM318.209 48.9599C316.801 48.9599 315.372 48.8106 313.921 48.5119C312.513 48.2132 311.191 47.7012 309.953 46.9759C308.759 46.2506 307.777 45.2692 307.009 44.0319C306.284 42.7519 305.921 41.1519 305.921 39.2319C305.921 36.5866 306.412 34.4746 307.393 32.8959C308.417 31.2746 309.804 30.1226 311.553 29.4399C313.345 28.7146 315.393 28.3519 317.697 28.3519C320.087 28.3519 322.071 28.5652 323.649 28.9919C325.228 29.3759 326.593 29.9092 327.745 30.5919V26.8159C327.745 24.3412 327.02 22.5279 325.569 21.3759C324.119 20.2239 322.049 19.6479 319.361 19.6479C317.655 19.6479 315.841 19.9039 313.921 20.4159C312.044 20.8852 310.423 21.6532 309.057 22.7199V18.1119C310.38 17.2586 312.151 16.6186 314.369 16.1919C316.588 15.7226 318.743 15.4879 320.833 15.4879C324.332 15.4879 327.127 16.3412 329.217 18.0479C331.351 19.7546 332.417 22.3146 332.417 25.7279V41.2159C332.417 43.4772 331.735 45.1626 330.369 46.2719C329.047 47.3812 327.297 48.1066 325.121 48.4479C322.988 48.7892 320.684 48.9599 318.209 48.9599ZM310.529 38.5279C310.529 40.1066 310.956 41.3652 311.809 42.3039C312.705 43.2426 313.815 43.9039 315.137 44.2879C316.503 44.6719 317.889 44.8639 319.297 44.8639C322.071 44.8639 324.161 44.6719 325.569 44.2879C327.02 43.8612 327.745 42.9226 327.745 41.4719V34.3039C326.679 33.7919 325.377 33.3652 323.841 33.0239C322.305 32.6826 320.663 32.5119 318.913 32.5119C316.225 32.5119 314.156 33.0239 312.705 34.0479C311.255 35.0719 310.529 36.5652 310.529 38.5279ZM362.287 48.5119C360.025 48.5119 358.127 47.8292 356.591 46.4639C355.055 45.0559 354.287 42.9866 354.287 40.2559V20.2879H348.719V16.0639H354.287V7.03992H358.895V16.0639H367.151V20.2879H358.895V38.7839C358.895 40.5759 359.172 41.9199 359.727 42.8159C360.281 43.7119 361.412 44.1599 363.119 44.1599C364.697 44.1599 366.041 43.9039 367.151 43.3919V47.7439C366.553 47.9572 365.785 48.1279 364.847 48.2559C363.951 48.4266 363.097 48.5119 362.287 48.5119ZM385.089 47.9999V1.91992H389.697V18.1759C391.275 17.3652 392.897 16.7252 394.561 16.2559C396.225 15.7439 397.825 15.4879 399.361 15.4879C403.286 15.4879 406.315 16.5972 408.449 18.8159C410.582 20.9919 411.649 24.4052 411.649 29.0559V47.9999H407.041V29.0559C407.041 26.0692 406.358 23.7652 404.993 22.1439C403.627 20.5226 401.579 19.7119 398.849 19.7119C395.862 19.7119 392.811 20.5652 389.697 22.2719V47.9999H385.089ZM444.685 48.9599C440.12 48.9599 436.515 47.5519 433.869 44.7359C431.224 41.8772 429.901 37.6319 429.901 31.9999C429.901 26.4959 431.139 22.3786 433.613 19.6479C436.131 16.8746 439.565 15.4879 443.917 15.4879C447.331 15.4879 450.061 16.2559 452.109 17.7919C454.2 19.3279 455.693 21.3972 456.589 23.9999C457.485 26.6026 457.912 29.5466 457.869 32.8319H434.573C434.573 36.7146 435.469 39.6799 437.261 41.7279C439.096 43.7332 441.656 44.7359 444.941 44.7359C447.288 44.7359 449.357 44.4799 451.149 43.9679C452.984 43.4559 454.563 42.7946 455.885 41.9839V46.7199C452.771 48.2132 449.037 48.9599 444.685 48.9599ZM443.917 19.7119C441.229 19.7119 439.139 20.3519 437.645 21.6319C436.152 22.8692 435.192 25.1946 434.765 28.6079H453.005C452.835 25.6212 452.003 23.4026 450.509 21.9519C449.016 20.4586 446.819 19.7119 443.917 19.7119ZM476.101 47.9999V18.6239C476.613 18.4106 477.595 18.0479 479.045 17.5359C480.539 17.0239 482.309 16.5546 484.357 16.1279C486.448 15.7012 488.603 15.4879 490.821 15.4879C491.163 15.4879 491.504 15.5306 491.845 15.6159C492.187 15.7012 492.528 15.7866 492.869 15.8719V19.9679C490.651 19.7119 488.56 19.7119 486.597 19.9679C484.635 20.2239 482.672 20.5226 480.709 20.8639V47.9999H476.101Z" fill="black" fill-opacity="0.4"/>
<path d="M511.426 40.576C512.706 40.576 513.346 41.3013 513.346 42.752C513.346 44.032 512.856 45.2693 511.874 46.464C510.936 47.616 509.869 48.192 508.674 48.192C507.48 48.192 506.882 47.4667 506.882 46.016C506.882 44.736 507.352 43.52 508.29 42.368C509.229 41.1733 510.274 40.576 511.426 40.576ZM535.49 0.0639648C541.677 0.0639648 544.77 2.55997 544.77 7.55197C544.77 8.83197 544.493 10.0693 543.938 11.264C543.384 12.4587 542.722 13.4827 541.954 14.336C541.229 15.1467 540.205 16 538.882 16.896C537.602 17.792 536.493 18.4747 535.554 18.944C534.658 19.4133 533.485 20.0107 532.034 20.736C530.285 21.5893 528.664 22.528 527.17 23.552C525.677 24.5333 524.461 25.4507 523.522 26.304C522.626 27.1147 521.837 27.8827 521.154 28.608C520.514 29.3333 520.066 29.9093 519.81 30.336L519.426 30.912C518.786 32.0213 518.082 33.088 517.314 34.112C516.546 35.136 515.928 35.8827 515.458 36.352L514.818 36.992C514.52 37.2907 514.221 37.44 513.922 37.44C513.496 37.44 513.282 36.8853 513.282 35.776C513.282 33.728 513.837 31.8507 514.946 30.144C515.714 28.9493 516.76 27.8827 518.082 26.944C519.448 25.9627 520.813 25.1307 522.178 24.448C523.586 23.7653 525.336 22.72 527.426 21.312C529.56 19.8613 531.586 18.2187 533.506 16.384C533.677 16.256 533.89 16.064 534.146 15.808C534.402 15.5093 534.872 14.9547 535.554 14.144C536.237 13.3333 536.834 12.5013 537.346 11.648C537.901 10.7947 538.392 9.77064 538.818 8.57597C539.245 7.3813 539.458 6.2293 539.458 5.11997C539.458 4.86397 539.416 4.5653 539.33 4.22397C539.288 3.83997 538.968 3.3493 538.37 2.75197C537.773 2.11197 536.962 1.79197 535.938 1.79197C533.122 1.79197 530.69 3.0933 528.642 5.69597C526.594 8.29864 525.485 11.1787 525.314 14.336C525.272 14.7627 525.058 14.976 524.674 14.976C524.461 14.976 524.29 14.9333 524.162 14.848C522.925 13.7813 522.306 12.3093 522.306 10.432C522.306 7.53064 523.693 5.0773 526.466 3.07197C529.282 1.06664 532.29 0.0639648 535.49 0.0639648Z" fill="black" fill-opacity="0.1"/>
</g>
<defs>
<filter id="filter0_i_7_14" x="0.712769" y="0.0639648" width="544.057" height="52.8959" filterUnits="userSpaceOnUse" color-interpolation-filters="sRGB">
<feFlood flood-opacity="0" result="BackgroundImageFix"/>
<feBlend mode="normal" in="SourceGraphic" in2="BackgroundImageFix" result="shape"/>
<feColorMatrix in="SourceAlpha" type="matrix" values="0 0 0 0 0 0 0 0 0 0 0 0 0 0 0 0 0 0 127 0" result="hardAlpha"/>
<feOffset dy="4"/>
<feGaussianBlur stdDeviation="2"/>
<feComposite in2="hardAlpha" operator="arithmetic" k2="-1" k3="1"/>
<feColorMatrix type="matrix" values="0 0 0 0 0 0 0 0 0 0 0 0 0 0 0 0 0 0 0.25 0"/>
<feBlend mode="normal" in2="shape" result="effect1_innerShadow_7_14"/>
</filter>
</defs>
</svg>
